<?xml version="1.0" encoding="UTF-8"?>
<svg xmlns="http://www.w3.org/2000/svg" xmlns:xlink="http://www.w3.org/1999/xlink" width="43px" height="52px" viewBox="0 0 43 51" version="1.1">
  <!-- https://github.com/alperen-ozdemir -->
<g id="surface1">
<path style=" stroke:none;fill-rule:nonzero;fill:rgb(14.117647%,16.078431%,18.431373%);fill-opacity:1;" d="M 9.546875 31.53125 L 31.757812 36.199219 L 32.6875 31.761719 L 10.476562 27.058594 Z M 9.546875 31.53125 "/>
<path style=" stroke:none;fill-rule:nonzero;fill:rgb(14.117647%,16.078431%,18.431373%);fill-opacity:1;" d="M 9.054688 37.339844 L 31.753906 37.339844 L 31.753906 41.859375 L 9.054688 41.859375 Z M 9.054688 37.339844 "/>
<path style=" stroke:none;fill-rule:nonzero;fill:rgb(14.117647%,16.078431%,18.431373%);fill-opacity:1;" d="M 12.460938 20.890625 L 33.023438 30.507812 L 34.929688 26.378906 L 14.355469 16.734375 Z M 12.460938 20.890625 "/>
<path style=" stroke:none;fill-rule:nonzero;fill:rgb(14.117647%,16.078431%,18.431373%);fill-opacity:1;" d="M 33.027344 30.511719 L 33.023438 30.507812 L 33.023438 30.511719 Z M 33.027344 30.511719 "/>
<path style=" stroke:none;fill-rule:nonzero;fill:rgb(14.117647%,16.078431%,18.431373%);fill-opacity:1;" d="M 0 32.785156 L 0 51 L 40.800781 51 L 40.800781 32.785156 L 36.261719 32.785156 L 36.261719 46.445312 L 4.539062 46.445312 L 4.539062 32.785156 Z M 0 32.785156 "/>
<path style=" stroke:none;fill-rule:nonzero;fill:rgb(14.117647%,16.078431%,18.431373%);fill-opacity:1;" d="M 18.160156 10.757812 L 35.582031 25.363281 L 38.472656 21.859375 L 21.050781 7.253906 Z M 18.160156 10.757812 "/>
<path style=" stroke:none;fill-rule:nonzero;fill:rgb(14.117647%,16.078431%,18.431373%);fill-opacity:1;" d="M 42.964844 18.246094 L 29.425781 0 L 25.792969 2.734375 L 39.332031 20.980469 Z M 42.964844 18.246094 "/>
</g>
</svg>
