<svg xmlns="http://www.w3.org/2000/svg" width="426.666" height="512" viewBox="0 0 426.666 512">
  <g id="Group_1" data-name="Group 1" transform="translate(3579.333 789)">
    <g id="_149081" data-name="149081" transform="translate(-3596.333 -784)">
      <g id="Group_8" data-name="Group 8" transform="translate(17 -5)">
        <g id="Group_1-2" data-name="Group 1" transform="translate(94.805 271.659)">
          <path id="Path_1" data-name="Path 1" d="M137.472,316.565l220.544,46.848,9.237-44.565L146.709,271.658Z" transform="translate(-137.472 -271.658)" fill="#24292f"/>
        </g>
        <g id="Group_2" data-name="Group 2" transform="translate(89.92 374.848)">
          <path id="Path_2" data-name="Path 2" d="M132.586,374.847H357.994v45.376H132.586Z" transform="translate(-132.586 -374.847)" fill="#24292f"/>
        </g>
        <g id="Group_3" data-name="Group 3" transform="translate(123.733 168)">
          <path id="Path_3" data-name="Path 3" d="M166.4,209.728l204.2,96.555,18.923-41.472L185.216,168Z" transform="translate(-166.4 -168)" fill="#24292f"/>
        </g>
        <g id="Group_4" data-name="Group 4" transform="translate(327.915 306.283)">
          <path id="Path_4" data-name="Path 4" d="M370.623,306.3l-.021-.021-.021.021Z" transform="translate(-370.581 -306.282)" fill="#24292f"/>
        </g>
        <g id="Group_5" data-name="Group 5" transform="translate(0 329.152)">
          <path id="Path_5" data-name="Path 5" d="M42.667,329.151V512H447.829V329.151H402.751v137.13H87.744V329.151Z" transform="translate(-42.667 -329.151)" fill="#24292f"/>
        </g>
        <g id="Group_6" data-name="Group 6" transform="translate(180.331 72.811)">
          <path id="Path_6" data-name="Path 6" d="M223,108.01,395.989,254.634l28.715-35.2L251.712,72.811Z" transform="translate(-222.997 -72.811)" fill="#24292f"/>
        </g>
        <g id="Group_7" data-name="Group 7" transform="translate(256.149)">
          <path id="Path_7" data-name="Path 7" d="M469.333,183.189,334.89,0,298.816,27.435,433.258,210.624Z" transform="translate(-298.816)" fill="#24292f"/>
        </g>
      </g>
    </g>
  </g>
</svg>
