<svg xmlns="http://www.w3.org/2000/svg" xmlns:xlink="http://www.w3.org/1999/xlink" version="1.1" width="1000" height="1000" viewBox="0 0 1000 1000" xml:space="preserve">
<desc>Created with Fabric.js 3.5.0</desc>
<defs>
</defs>
<rect x="0" y="0" width="100%" height="100%" fill="#ffffff"/>
<g transform="matrix(22.7273 0 0 22.7273 500.0005 500.0005)" id="158370">
<g style="" vector-effect="non-scaling-stroke">
		<g transform="matrix(1 0 0 1 0.5 0.5)">
<rect style="stroke: none; stroke-width: 1; stroke-dasharray: none; stroke-linecap: butt; stroke-dashoffset: 0; stroke-linejoin: miter; stroke-miterlimit: 4; is-custom-font: none; font-file-url: none; fill: rgb(255,255,255); fill-rule: nonzero; opacity: 1;" x="-17.5" y="-16.5" rx="0" ry="0" width="35" height="33"/>
</g>
		<g transform="matrix(1 0 0 1 0 0)">
<path style="stroke: none; stroke-width: 1; stroke-dasharray: none; stroke-linecap: butt; stroke-dashoffset: 0; stroke-linejoin: miter; stroke-miterlimit: 4; is-custom-font: none; font-file-url: none; fill: rgb(36,41,47); fill-rule: nonzero; opacity: 1;" transform=" translate(-20, -20)" d="M 34.0783 34.0867 H 28.155 V 24.805 C 28.155 22.5917 28.11 19.7433 25.0683 19.7433 C 21.98 19.7433 21.5083 22.1517 21.5083 24.6417 V 34.0867 H 15.585 V 15 H 21.275 V 17.6017 H 21.3517 C 22.1467 16.1017 24.08 14.5183 26.9683 14.5183 C 32.97 14.5183 34.08 18.4683 34.08 23.61 V 34.0867 H 34.0783 Z M 8.895 12.3883 C 6.98833 12.3883 5.45667 10.845 5.45667 8.94667 C 5.45667 7.05 6.99 5.50833 8.895 5.50833 C 10.795 5.50833 12.335 7.05 12.335 8.94667 C 12.335 10.845 10.7933 12.3883 8.895 12.3883 Z M 11.865 34.0867 H 5.925 V 15 H 11.865 V 34.0867 Z M 37.0417 0 H 2.95167 C 1.32 0 0 1.29 0 2.88167 V 37.1183 C 0 38.7117 1.32 40 2.95167 40 H 37.0367 C 38.6667 40 40 38.7117 40 37.1183 V 2.88167 C 40 1.29 38.6667 0 37.0367 0 H 37.0417 Z" stroke-linecap="round"/>
</g>
</g>
</g>
</svg>