<svg xmlns="http://www.w3.org/2000/svg" width="909.092" height="909.092" viewBox="0 0 909.092 909.092">
  <g id="Group_3" data-name="Group 3" transform="translate(454.546 454.546)">
    <g id="Group_1" data-name="Group 1" transform="translate(11.364 11.364)">
      <rect id="Rectangle_2" data-name="Rectangle 2" width="795.456" height="750.001" transform="translate(-397.728 -375)" fill="#fff"/>
    </g>
    <g id="Group_2" data-name="Group 2">
      <path id="Path_1" data-name="Path 1" d="M774.508,774.7H639.887V563.751c0-50.3-1.023-115.039-70.152-115.039-70.189,0-80.909,54.736-80.909,111.327V774.7H354.2V340.91H483.523v59.13h1.743c18.068-34.091,62.007-70.077,127.65-70.077,136.4,0,161.63,89.773,161.63,206.63V774.7ZM202.159,281.553a78.182,78.182,0,1,1,78.182-78.219A78.1,78.1,0,0,1,202.159,281.553Zm67.5,493.146h-135V340.91h135ZM841.858,0H67.083C30,0,0,29.318,0,65.493V843.6c0,36.214,30,65.493,67.083,65.493H841.744c37.045,0,67.348-29.28,67.348-65.493V65.493C909.092,29.318,878.79,0,841.744,0Z" transform="translate(-454.546 -454.546)" fill="#24292f"/>
    </g>
  </g>
</svg>
