<svg xmlns="http://www.w3.org/2000/svg" xmlns:xlink="http://www.w3.org/1999/xlink" width="42" height="42" viewBox="0 0 42 42">
  <defs>
    <clipPath id="clip-path">
      <rect id="clip0_101_24" width="42" height="42" transform="translate(-20 -20)"/>
    </clipPath>
  </defs>
  <g id="_903653" data-name="903653" transform="translate(20 20)" clip-path="url(#clip-path)">
    <path id="Path_1" data-name="Path 1" d="M35.555,7.409a34.635,34.635,0,0,0-8.549-2.652.13.13,0,0,0-.137.065A24.094,24.094,0,0,0,25.8,7.009a31.972,31.972,0,0,0-9.6,0,22.119,22.119,0,0,0-1.081-2.187.135.135,0,0,0-.137-.065A34.537,34.537,0,0,0,6.435,7.409a.122.122,0,0,0-.056.048,35.447,35.447,0,0,0-6.2,23.906.144.144,0,0,0,.055.1,34.826,34.826,0,0,0,10.488,5.3.136.136,0,0,0,.147-.048,24.913,24.913,0,0,0,2.146-3.49.133.133,0,0,0,.005-.109.134.134,0,0,0-.078-.076,22.933,22.933,0,0,1-3.276-1.561.135.135,0,0,1-.013-.224c.22-.165.44-.337.651-.51a.13.13,0,0,1,.136-.018,24.838,24.838,0,0,0,21.107,0,.129.129,0,0,1,.137.017c.21.173.431.347.652.512a.134.134,0,0,1,.041.051.134.134,0,0,1-.007.127.134.134,0,0,1-.046.046,21.522,21.522,0,0,1-3.278,1.56.134.134,0,0,0-.071.187,27.959,27.959,0,0,0,2.144,3.488.133.133,0,0,0,.147.05,34.719,34.719,0,0,0,10.5-5.3.135.135,0,0,0,.038-.042.134.134,0,0,0,.017-.054,35.215,35.215,0,0,0-6.21-23.906.107.107,0,0,0-.055-.05ZM14.035,26.592a4.037,4.037,0,0,1-3.775-4.233,4.015,4.015,0,0,1,3.775-4.233,3.993,3.993,0,0,1,3.774,4.233,4.015,4.015,0,0,1-3.775,4.233Zm13.956,0a4.037,4.037,0,0,1-3.775-4.233,4.015,4.015,0,0,1,3.775-4.233,3.993,3.993,0,0,1,3.774,4.233,4,4,0,0,1-3.774,4.233Z" transform="translate(-20 -19.762)" fill="#24292f"/>
  </g>
</svg>
